<svg xmlns="http://www.w3.org/2000/svg" xmlns:xlink="http://www.w3.org/1999/xlink" version="1.1" style="shape-rendering:geometricPrecision; text-rendering:geometricPrecision; image-rendering:optimizeQuality; fill-rule:evenodd; clip-rule:evenodd" viewBox="-0.5 304 1610 1609.38">
    <g>
        <path style="opacity:0.994" fill="#fefefe" d="M 1609.5,1067.5 C 1609.5,1094.83 1609.5,1122.17 1609.5,1149.5C 1595.24,1364.16 1511.24,1545.99 1357.5,1695C 1181.5,1855.79 973.832,1927.79 734.5,1911C 519.935,1889.47 341.102,1798.97 198,1639.5C 77.0555,1498.93 10.8888,1335.6 -0.5,1149.5C -0.5,1122.17 -0.5,1094.83 -0.5,1067.5C 14.0619,849.905 100.062,666.405 257.5,517C 426.48,365.277 625.147,294.611 853.5,305C 1084.79,322.723 1275.29,419.223 1425,594.5C 1537,731.926 1598.5,889.592 1609.5,1067.5 Z"/>
    </g>
    <g>
        <path style="opacity:1" fill="#01c2e8" d="M 765.5,379.5 C 997.457,372.446 1191.96,453.446 1349,622.5C 1484.32,778.123 1545.32,959.456 1532,1166.5C 1514.06,1357.87 1435.23,1518.71 1295.5,1649C 1141.72,1784.72 961.716,1847.38 755.5,1837C 586.362,1824 439.029,1761.34 313.5,1649C 165.186,1510.5 85.6855,1339.33 75,1135.5C 70.6792,934.295 135.679,759.629 270,611.5C 404.854,470.502 570.021,393.168 765.5,379.5 Z"/>
    </g>
    <g>
        <path style="opacity:1" fill="#fefefe" d="M 656.5,920.5 C 671.536,920.145 686.536,920.645 701.5,922C 714.505,924.003 721.672,931.503 723,944.5C 721.493,1031.7 703.493,1115.37 669,1195.5C 657.59,1221.35 642.924,1245.01 625,1266.5C 613.878,1278.98 600.378,1287.81 584.5,1293C 546.757,1299.54 519.923,1285.38 504,1250.5C 494.511,1226.39 488.844,1201.39 487,1175.5C 485.196,1156.53 483.863,1137.53 483,1118.5C 459.17,1170.49 433.503,1221.49 406,1271.5C 400.316,1280.85 392.482,1287.69 382.5,1292C 376.882,1293.16 371.215,1293.99 365.5,1294.5C 352.373,1293.45 339.373,1291.62 326.5,1289C 315.462,1287.4 307.629,1281.57 303,1271.5C 296.222,1244.61 292.555,1217.28 292,1189.5C 290.567,1117.26 297.9,1045.93 314,975.5C 319.77,957.422 332.27,947.922 351.5,947C 362.809,945.698 374.143,945.365 385.5,946C 392.243,949.925 394.41,955.759 392,963.5C 380.642,1014.65 372.642,1066.32 368,1118.5C 365.351,1160.26 366.351,1201.93 371,1243.5C 413.948,1159.61 453.615,1074.27 490,987.5C 492,984.167 494,980.833 496,977.5C 497.731,975.383 499.898,973.883 502.5,973C 517.39,968.7 532.39,968.366 547.5,972C 554.082,973.971 557.082,978.471 556.5,985.5C 551.564,1045.46 550.731,1105.46 554,1165.5C 555.191,1185.65 558.858,1205.32 565,1224.5C 574.981,1249.12 587.648,1250.79 603,1229.5C 612.908,1210.11 620.242,1189.78 625,1168.5C 641.449,1092.13 646.949,1014.97 641.5,937C 642.241,927.433 647.241,921.933 656.5,920.5 Z"/>
    </g>
    <g>
        <path style="opacity:1" fill="#fefefe" d="M 1166.5,1091.5 C 1167.4,1090.79 1167.74,1089.79 1167.5,1088.5C 1163.96,1088.19 1160.62,1088.52 1157.5,1089.5C 1148.83,1089.67 1140.16,1089.5 1131.5,1089C 1125.34,1086.87 1122.67,1082.54 1123.5,1076C 1124.22,1065.49 1126.39,1055.33 1130,1045.5C 1131.73,1043.38 1133.9,1041.88 1136.5,1041C 1150.16,1040.5 1163.83,1040.33 1177.5,1040.5C 1180.92,1018.25 1185.42,996.251 1191,974.5C 1193.56,971.469 1196.73,969.302 1200.5,968C 1216.34,966.682 1232.01,967.682 1247.5,971C 1255.3,974.781 1258.14,980.947 1256,989.5C 1251.92,1007.74 1248.42,1026.07 1245.5,1044.5C 1269.53,1045.67 1293.53,1047.17 1317.5,1049C 1325.12,1051.41 1328.29,1056.57 1327,1064.5C 1324.39,1075.44 1317.56,1081.94 1306.5,1084C 1283.53,1085.2 1260.53,1086.04 1237.5,1086.5C 1229.08,1125.54 1222.24,1164.87 1217,1204.5C 1216.33,1213.83 1216.33,1223.17 1217,1232.5C 1220.84,1250.64 1232,1258.14 1250.5,1255C 1261.78,1252.05 1271.28,1246.21 1279,1237.5C 1285.2,1229.6 1291.03,1221.43 1296.5,1213C 1305.13,1212.06 1312.29,1214.89 1318,1221.5C 1318.88,1226.54 1317.88,1231.21 1315,1235.5C 1300.34,1261.83 1279.51,1281.66 1252.5,1295C 1230.93,1303.21 1209.27,1303.55 1187.5,1296C 1173.55,1289.38 1163.71,1278.88 1158,1264.5C 1155.5,1256.14 1153.16,1247.81 1151,1239.5C 1135.48,1263.01 1114.98,1280.85 1089.5,1293C 1062.5,1303.98 1036.17,1302.65 1010.5,1289C 995.982,1277.81 987.815,1262.97 986,1244.5C 984.89,1233.52 984.556,1222.52 985,1211.5C 987.957,1187.06 991.291,1162.73 995,1138.5C 980.895,1151.05 964.562,1159.39 946,1163.5C 939.094,1197.27 925.094,1227.6 904,1254.5C 868.908,1292.19 826.074,1305.36 775.5,1294C 746.5,1285.67 727.333,1267.17 718,1238.5C 706.534,1190.56 712.534,1144.89 736,1101.5C 773.128,1040.36 826.628,1017.86 896.5,1034C 921.82,1043.99 937.987,1062.16 945,1088.5C 947.477,1098.36 948.977,1108.36 949.5,1118.5C 964.323,1116.09 977.323,1109.92 988.5,1100C 994.333,1094.17 1000.17,1088.33 1006,1082.5C 1014.56,1035.7 1023.89,989.036 1034,942.5C 1036.17,933.667 1041.67,928.167 1050.5,926C 1067.98,922.393 1085.31,923.06 1102.5,928C 1109.04,932.739 1112.04,939.239 1111.5,947.5C 1109.09,973.711 1103.92,999.377 1096,1024.5C 1089.86,1042.59 1083.53,1060.59 1077,1078.5C 1064.8,1121.54 1057.63,1165.37 1055.5,1210C 1054.3,1222.03 1056.13,1233.53 1061,1244.5C 1070.76,1255.2 1082.26,1257.37 1095.5,1251C 1109.14,1244.03 1120.31,1234.19 1129,1221.5C 1140.33,1204.84 1148.99,1186.84 1155,1167.5C 1158.34,1142.1 1162.18,1116.76 1166.5,1091.5 Z"/>
    </g>
    <g>
        <path style="opacity:1" fill="#08c2e8" d="M 847.5,1066.5 C 853.599,1066.38 859.599,1067.04 865.5,1068.5C 860.971,1085.7 860.471,1103.04 864,1120.5C 866.421,1132.68 872.421,1142.68 882,1150.5C 878.713,1183.36 867.713,1213.36 849,1240.5C 843.323,1247.52 836.489,1253.02 828.5,1257C 810.422,1261.71 797.588,1255.54 790,1238.5C 784.821,1222.92 783.154,1206.92 785,1190.5C 786.38,1155.97 795.38,1123.64 812,1093.5C 820.327,1079.65 832.16,1070.65 847.5,1066.5 Z"/>
    </g>
    <g>
        <path style="opacity:1" fill="#9ce7f6" d="M 1157.5,1089.5 C 1160.62,1088.52 1163.96,1088.19 1167.5,1088.5C 1167.74,1089.79 1167.4,1090.79 1166.5,1091.5C 1164.01,1089.61 1161.01,1088.95 1157.5,1089.5 Z"/>
    </g>
</svg>